# xmcd
#
# Track frame offsets:
#	150
#	19450
#	32842
#	44627
#	63295
#	78437
#	91042
#	109697
#	125120
#	137417
#	157922
#	169887
#	184700
#	198700
#	214740
#
# Disc length: 3047 seconds
#
# Revision: 1
# Processed by: cddbd v1.5.1PL0 Copyright (c) Steve Scherf et al.
# Submitted via: audiograbber 1.83.01
#
DISCID=d00be50f
DTITLE=Various Artist - Capitol Nashville Sampler 1997
DYEAR=1997
DGENRE=Country
TTITLE0=Deana Carter - How Do I Get There
TTITLE1=The Ranch - Walkin' the Country
TTITLE2=The Ranch - Some Days You Gotta Dance
TTITLE3=Trace Adkins - (This Ain't) No Thinkin' Thing
TTITLE4=River Road - Wishful Thinkin'
TTITLE5=River Road - Somebody Will
TTITLE6=Tanya Tucker - Little Things
TTITLE7=Dean Miller - Nowhere USA
TTITLE8=Dean Miller - My Heart's Broke Down
TTITLE9=Chris Ledoux - Take Me to the Rodeo
TTITLE10=Emilio - I'd Love You to Love Me
TTITLE11=Emilio - Somebody Stop Me
TTITLE12=George Ducas - Long Trail of Tears
TTITLE13=Suzy Bogguss - Traveling Light
TTITLE14=John Berry - I Will If You Will
EXTD=
EXTT0=
EXTT1=
EXTT2=
EXTT3=
EXTT4=
EXTT5=
EXTT6=
EXTT7=
EXTT8=
EXTT9=
EXTT10=
EXTT11=
EXTT12=
EXTT13=
EXTT14=
PLAYORDER=
